<svg width="272" height="48" viewBox="0 0 272 48" fill="none" xmlns="http://www.w3.org/2000/svg">
<path d="M4.17188 35.2695L2.64844 35.1992C2.64844 34.4961 2.65625 33.7109 2.67188 32.8438C2.69531 31.9688 2.72266 31.1172 2.75391 30.2891C2.75391 30.2031 2.75781 30.0977 2.76562 29.9727C2.77344 29.8477 2.77734 29.7422 2.77734 29.6562L3 23.6797C3.03906 23.0469 3.08203 22.3828 3.12891 21.6875C3.17578 20.9844 3.25 20.1484 3.35156 19.1797L3.39844 18.4766L3.53906 18.3125C3.71875 18.2812 4.05469 18.25 4.54688 18.2188C5.04688 18.1875 5.625 18.1602 6.28125 18.1367C6.94531 18.1055 7.61328 18.0781 8.28516 18.0547C8.96484 18.0312 9.57812 18.0117 10.125 17.9961C10.6797 17.9805 11.0898 17.9727 11.3555 17.9727H11.5781L11.1328 23.9492H17.4375C17.4453 23.9023 17.457 23.7109 17.4727 23.375C17.4883 23.0391 17.5078 22.6289 17.5312 22.1445C17.5547 21.6602 17.5781 21.1602 17.6016 20.6445C17.625 20.1289 17.6445 19.6562 17.6602 19.2266C17.6758 18.7891 17.6836 18.4648 17.6836 18.2539C17.9492 18.2148 18.25 18.1875 18.5859 18.1719C18.9297 18.1562 19.2227 18.1445 19.4648 18.1367L26.2148 17.9609C26.2148 18 26.2031 18.2148 26.1797 18.6055C26.1641 18.9961 26.1406 19.4961 26.1094 20.1055C26.0781 20.707 26.043 21.3516 26.0039 22.0391C25.9727 22.7266 25.9375 23.3906 25.8984 24.0312C25.8672 24.6641 25.8398 25.2148 25.8164 25.6836C25.8008 26.1445 25.793 26.4492 25.793 26.5977C25.793 26.6914 25.7891 26.7852 25.7812 26.8789C25.7812 26.9727 25.7734 27.1484 25.7578 27.4062C25.75 27.6641 25.7344 28.0742 25.7109 28.6367C25.6953 29.1992 25.6719 29.9883 25.6406 31.0039C25.6172 32.0195 25.5859 33.3438 25.5469 34.9766C25.4375 34.9766 25.1758 34.9805 24.7617 34.9883C24.3555 34.9961 23.8594 35.0039 23.2734 35.0117C22.6875 35.0273 22.0703 35.0391 21.4219 35.0469C20.7734 35.0625 20.1484 35.0742 19.5469 35.082C18.9531 35.0977 18.4375 35.1094 18 35.1172C17.5703 35.125 17.2812 35.1289 17.1328 35.1289C17.1328 34.918 17.1367 34.5977 17.1445 34.168C17.1602 33.7305 17.1758 33.25 17.1914 32.7266C17.207 32.2031 17.2227 31.6914 17.2383 31.1914C17.2617 30.6914 17.2812 30.2734 17.2969 29.9375H11.0391L10.7344 34.9766L4.40625 35.2695H4.17188ZM38.7891 35.4336C37.7109 35.4336 36.6367 35.3477 35.5664 35.1758C34.4961 35.0117 33.5195 34.707 32.6367 34.2617C31.7539 33.8164 31.0469 33.1914 30.5156 32.3867C29.9844 31.5742 29.7188 30.5234 29.7188 29.2344C29.7188 27.5859 30.1328 26.2656 30.9609 25.2734C31.7969 24.2812 32.9453 23.5664 34.4062 23.1289C35.875 22.6836 37.5586 22.4609 39.457 22.4609C41.1211 22.4609 42.6094 22.7109 43.9219 23.2109C45.2344 23.7031 46.2656 24.4258 47.0156 25.3789C47.7734 26.3242 48.1523 27.4766 48.1523 28.8359C48.1523 29.9766 47.9609 30.9414 47.5781 31.7305C47.2031 32.5117 46.6914 33.1484 46.043 33.6406C45.4023 34.125 44.6758 34.5 43.8633 34.7656C43.0586 35.0234 42.2188 35.1992 41.3438 35.293C40.4688 35.3867 39.6172 35.4336 38.7891 35.4336ZM38.9766 32.2344C39.9531 32.2344 40.668 31.9141 41.1211 31.2734C41.582 30.625 41.8125 29.8281 41.8125 28.8828C41.8125 28.0625 41.5625 27.3672 41.0625 26.7969C40.5703 26.2266 39.8555 25.9414 38.918 25.9414C38.2773 25.9414 37.7578 26.1016 37.3594 26.4219C36.9609 26.7422 36.668 27.1484 36.4805 27.6406C36.3008 28.125 36.2109 28.625 36.2109 29.1406C36.2109 30.125 36.4336 30.8867 36.8789 31.4258C37.332 31.9648 38.0312 32.2344 38.9766 32.2344ZM71.1445 35.0234C68.7461 35.0938 67.0156 35.1289 65.9531 35.1289C65.4219 35.1289 64.9883 35.1289 64.6523 35.1289C64.3164 35.1289 64.0781 35.1328 63.9375 35.1406C63.8594 34.7422 63.7305 34.0859 63.5508 33.1719C63.3711 32.25 63.1367 31.0703 62.8477 29.6328L61.4883 34.8477C58.8086 34.9883 56.8203 35.0586 55.5234 35.0586H54.2227C52.6055 29.7227 51.3633 25.8164 50.4961 23.3398C51.3242 23.3242 52.0898 23.3086 52.793 23.293C53.5039 23.2695 54.0742 23.25 54.5039 23.2344L55.6758 23.1758C56.1836 23.1758 56.6172 23.1641 56.9766 23.1406L58.2773 30.4531L59.8359 24.5469L60.1875 23.1055L63.9609 23.0703C64.7656 23.0703 65.5547 23.0938 66.3281 23.1406C66.4375 23.7031 66.625 24.5898 66.8906 25.8008C67.1641 27.0039 67.5117 28.5312 67.9336 30.3828L69.7031 23.1406L71.2969 23.0234L75.7969 23C75.4141 23.9062 75.0273 24.8555 74.6367 25.8477C74.2461 26.832 73.875 27.793 73.5234 28.7305C73.1719 29.6602 72.8555 30.5078 72.5742 31.2734C72.293 32.0312 72.0664 32.6406 71.8945 33.1016C71.707 33.5859 71.5547 33.9688 71.4375 34.25C71.3281 34.5234 71.2305 34.7812 71.1445 35.0234ZM92.9531 35.4219C91.5234 35.4219 90.2539 35.2227 89.1445 34.8242C88.0352 34.4258 87.1875 33.8242 86.6016 33.0195C86.0156 32.207 85.7812 31.1875 85.8984 29.9609C85.9609 29.3594 86.0312 28.7383 86.1094 28.0977C86.1953 27.457 86.2852 26.8398 86.3789 26.2461H84.832C84.5117 26.2461 84.2344 26.2383 84 26.2227C83.7734 26.207 83.5898 26.1797 83.4492 26.1406L84.1758 23.457H86.6602C86.8086 22.3711 86.9102 21.457 86.9648 20.7148C87.0273 19.9648 87.0938 19.3047 87.1641 18.7344C87.6328 18.6875 88.1914 18.6406 88.8398 18.5938C89.4883 18.5469 90.1641 18.5039 90.8672 18.4648C91.5703 18.4258 92.2383 18.3945 92.8711 18.3711C93.5117 18.3477 94.0547 18.3359 94.5 18.3359L93.9375 23.5039H98.0273C98.4258 23.5039 98.7695 23.5469 99.0586 23.6328L98.4375 26.1289C98.2734 26.1836 98.082 26.2188 97.8633 26.2344C97.6523 26.25 97.4219 26.2578 97.1719 26.2578C97.0625 26.2578 96.9531 26.2578 96.8438 26.2578C96.7344 26.25 96.6211 26.2461 96.5039 26.2461H93.5977C93.4961 26.8164 93.4023 27.3789 93.3164 27.9336C93.2383 28.4805 93.1758 29.0078 93.1289 29.5156C93.0742 30.1094 93.1406 30.5625 93.3281 30.875C93.5234 31.1875 93.7969 31.3984 94.1484 31.5078C94.5078 31.6172 94.9023 31.6719 95.332 31.6719H95.3438C95.7344 31.6719 96.1484 31.6289 96.5859 31.543C97.0234 31.457 97.4414 31.3594 97.8398 31.25C98.2461 31.1406 98.582 31.0508 98.8477 30.9805L98.7773 34.4844C98.2305 34.6953 97.5977 34.8711 96.8789 35.0117C96.168 35.1523 95.4609 35.2539 94.7578 35.3164C94.0547 35.3867 93.4531 35.4219 92.9531 35.4219ZM110.812 35.4336C109.734 35.4336 108.66 35.3477 107.59 35.1758C106.52 35.0117 105.543 34.707 104.66 34.2617C103.777 33.8164 103.07 33.1914 102.539 32.3867C102.008 31.5742 101.742 30.5234 101.742 29.2344C101.742 27.5859 102.156 26.2656 102.984 25.2734C103.82 24.2812 104.969 23.5664 106.43 23.1289C107.898 22.6836 109.582 22.4609 111.48 22.4609C113.145 22.4609 114.633 22.7109 115.945 23.2109C117.258 23.7031 118.289 24.4258 119.039 25.3789C119.797 26.3242 120.176 27.4766 120.176 28.8359C120.176 29.9766 119.984 30.9414 119.602 31.7305C119.227 32.5117 118.715 33.1484 118.066 33.6406C117.426 34.125 116.699 34.5 115.887 34.7656C115.082 35.0234 114.242 35.1992 113.367 35.293C112.492 35.3867 111.641 35.4336 110.812 35.4336ZM111 32.2344C111.977 32.2344 112.691 31.9141 113.145 31.2734C113.605 30.625 113.836 29.8281 113.836 28.8828C113.836 28.0625 113.586 27.3672 113.086 26.7969C112.594 26.2266 111.879 25.9414 110.941 25.9414C110.301 25.9414 109.781 26.1016 109.383 26.4219C108.984 26.7422 108.691 27.1484 108.504 27.6406C108.324 28.125 108.234 28.625 108.234 29.1406C108.234 30.125 108.457 30.8867 108.902 31.4258C109.355 31.9648 110.055 32.2344 111 32.2344ZM140.133 35.4336C138.828 35.4336 137.59 35.2109 136.418 34.7656C135.246 34.3125 134.305 33.6484 133.594 32.7734V32.7266C133.578 32.7812 133.508 32.9102 133.383 33.1133C133.258 33.3164 133.113 33.543 132.949 33.793C132.793 34.0352 132.652 34.2461 132.527 34.4258C132.41 34.6055 132.348 34.6953 132.34 34.6953C132.293 34.7188 132.137 34.7578 131.871 34.8125C131.605 34.8594 131.305 34.9102 130.969 34.9648C130.641 35.0195 130.344 35.0664 130.078 35.1055C129.82 35.1445 129.672 35.1641 129.633 35.1641C129.312 35.1641 129.059 35.0859 128.871 34.9297C128.879 34.6797 128.887 34.4258 128.895 34.168C128.902 33.9023 128.91 33.6445 128.918 33.3945L128.906 33.3594L129.469 20.1289V18.5586C129.594 18.543 129.824 18.5156 130.16 18.4766C130.504 18.4297 130.898 18.3828 131.344 18.3359C131.797 18.2812 132.246 18.2305 132.691 18.1836C133.137 18.1367 133.527 18.0977 133.863 18.0664C134.199 18.0352 134.422 18.0195 134.531 18.0195C134.805 18.0195 135.074 18.0273 135.34 18.043C135.605 18.0586 135.859 18.0938 136.102 18.1484C136.102 18.3359 136.098 18.5273 136.09 18.7227C136.082 18.9102 136.078 19.0977 136.078 19.2852C136.078 19.5195 136.066 19.8633 136.043 20.3164C136.027 20.7617 136.004 21.2422 135.973 21.7578C135.949 22.2734 135.926 22.7578 135.902 23.2109C135.887 23.6562 135.875 23.9922 135.867 24.2188C136.492 23.7969 137.238 23.4453 138.105 23.1641C138.973 22.875 139.867 22.7305 140.789 22.7305C142.109 22.7305 143.336 22.9688 144.469 23.4453C145.602 23.9141 146.512 24.6016 147.199 25.5078C147.895 26.4141 148.242 27.5156 148.242 28.8125C148.242 29.7266 148.027 30.582 147.598 31.3789C147.168 32.1758 146.574 32.8789 145.816 33.4883C145.066 34.0977 144.203 34.5742 143.227 34.918C142.25 35.2617 141.219 35.4336 140.133 35.4336ZM138.398 32.0703C139.32 32.0703 140.047 31.7656 140.578 31.1562C141.109 30.5469 141.375 29.8047 141.375 28.9297C141.375 28.0938 141.109 27.3984 140.578 26.8438C140.047 26.2812 139.312 26 138.375 26C137.695 26 137.121 26.1562 136.652 26.4688C136.191 26.7812 135.844 27.1836 135.609 27.6758C135.375 28.1602 135.258 28.6641 135.258 29.1875C135.258 29.6719 135.367 30.1367 135.586 30.582C135.812 31.0195 136.156 31.3789 136.617 31.6602C137.086 31.9336 137.68 32.0703 138.398 32.0703ZM158.297 35.4453C157.406 35.4453 156.527 35.3555 155.66 35.1758C154.793 35.0039 154 34.7188 153.281 34.3203C152.57 33.9219 152 33.3906 151.57 32.7266C151.148 32.0547 150.938 31.2227 150.938 30.2305C150.938 29.1211 150.953 28.1953 150.984 27.4531C151.023 26.7109 151.066 26.0312 151.113 25.4141C151.16 24.7969 151.191 24.1367 151.207 23.4336C151.527 23.3789 152 23.3125 152.625 23.2344C153.258 23.1484 153.93 23.0742 154.641 23.0117C155.352 22.9492 155.992 22.918 156.562 22.918C156.891 22.918 157.195 22.9297 157.477 22.9531C157.758 22.9688 158.023 22.9883 158.273 23.0117C158.25 23.5195 158.219 24.1094 158.18 24.7812C158.148 25.4531 158.117 26.1094 158.086 26.75C158.062 27.3906 158.039 27.9297 158.016 28.3672C158 28.7969 157.992 29.0273 157.992 29.0586C157.992 29.9102 158.176 30.6367 158.543 31.2383C158.918 31.832 159.523 32.1289 160.359 32.1289C160.938 32.1289 161.398 32.0195 161.742 31.8008C162.094 31.5742 162.367 31.293 162.562 30.957C162.766 30.6211 162.934 30.293 163.066 29.9727C163.23 29.6133 163.344 29.1406 163.406 28.5547C163.469 27.9609 163.504 27.332 163.512 26.668C163.52 26.0039 163.523 25.375 163.523 24.7812C163.531 24.1797 163.562 23.6914 163.617 23.3164C164.172 23.2773 164.75 23.2422 165.352 23.2109C165.961 23.1719 166.66 23.1289 167.449 23.082C168.238 23.0352 169.184 22.9805 170.285 22.918C170.293 23.1445 170.297 23.3672 170.297 23.5859C170.297 23.7969 170.297 24.0156 170.297 24.2422L169.723 34.6484C169.293 34.7266 168.809 34.8047 168.27 34.8828C167.73 34.9609 166.984 35.0664 166.031 35.1992C165.945 35.082 165.82 34.8867 165.656 34.6133C165.492 34.332 165.336 34.0273 165.188 33.6992C165.039 33.3633 164.945 33.0547 164.906 32.7734C164.102 33.6953 163.102 34.3711 161.906 34.8008C160.711 35.2305 159.508 35.4453 158.297 35.4453ZM181.922 18.8516C181.859 19.3281 181.617 19.7227 181.195 20.0352C180.773 20.3477 180.262 20.582 179.66 20.7383C179.059 20.8867 178.453 20.9609 177.844 20.9609C176.969 20.9609 176.27 20.9102 175.746 20.8086C175.223 20.707 174.844 20.5 174.609 20.1875C174.383 19.8672 174.27 19.3945 174.27 18.7695C174.27 18.418 174.418 18.043 174.715 17.6445C175.012 17.2383 175.516 16.8945 176.227 16.6133C176.945 16.332 177.93 16.1914 179.18 16.1914C180.133 16.1914 180.852 16.4414 181.336 16.9414C181.828 17.4336 182.023 18.0703 181.922 18.8516ZM175.02 35.0703C174.824 35.0703 174.629 35.0625 174.434 35.0469C174.246 35.0391 174.059 35.0078 173.871 34.9531C173.871 34.6562 173.891 34.082 173.93 33.2305C173.969 32.3711 174.016 31.3359 174.07 30.125C174.086 29.6172 174.105 29.0508 174.129 28.4258C174.152 27.793 174.18 27.1562 174.211 26.5156C174.242 25.8672 174.273 25.2695 174.305 24.7227C174.344 24.1758 174.387 23.7344 174.434 23.3984C175.332 23.3359 176.25 23.2773 177.188 23.2227C178.125 23.1602 179.059 23.0781 179.988 22.9766H180.035C180.41 22.9766 180.785 22.9883 181.16 23.0117L180.715 33.957V34.0391C180.715 34.1562 180.715 34.2734 180.715 34.3906C180.723 34.5078 180.73 34.6289 180.738 34.7539C180.457 34.793 180.082 34.8242 179.613 34.8477C179.152 34.8711 178.645 34.8945 178.09 34.918C177.543 34.9336 177 34.9531 176.461 34.9766C175.922 35 175.445 35.0312 175.031 35.0703H175.02ZM184.805 35.1992L185.156 24.125C185.18 23.4922 185.203 22.8945 185.227 22.332C185.25 21.7617 185.27 21.1602 185.285 20.5273C185.309 19.8945 185.32 19.1562 185.32 18.3125C185.578 18.2812 185.977 18.2422 186.516 18.1953C187.062 18.1406 187.676 18.0781 188.355 18.0078C189.035 17.9375 189.719 17.8672 190.406 17.7969C191.102 17.7266 191.73 17.6562 192.293 17.5859L192.223 19.2617L191.707 33.3359L191.73 35.0234L184.805 35.1992ZM202.523 35.3867C201.109 35.3867 199.828 35.1328 198.68 34.625C197.539 34.1172 196.629 33.4102 195.949 32.5039C195.277 31.5977 194.941 30.5469 194.941 29.3516C194.941 28.25 195.176 27.2852 195.645 26.457C196.113 25.6289 196.742 24.9414 197.531 24.3945C198.32 23.8398 199.199 23.4258 200.168 23.1523C201.145 22.8711 202.141 22.7305 203.156 22.7305C204.039 22.7305 204.887 22.875 205.699 23.1641C206.512 23.4453 207.203 23.8008 207.773 24.2305C207.789 23.5195 207.812 22.7578 207.844 21.9453C207.875 21.1328 207.898 20.3711 207.914 19.6602C207.914 19.4648 207.922 19.2305 207.938 18.957C207.961 18.6836 207.977 18.5039 207.984 18.418C208.211 18.4102 208.539 18.3945 208.969 18.3711C209.406 18.3398 209.883 18.3086 210.398 18.2773C210.922 18.2383 211.434 18.2031 211.934 18.1719C212.434 18.1406 212.875 18.1172 213.258 18.1016C213.641 18.0781 213.902 18.0664 214.043 18.0664H214.078V34.5547C213.992 34.6094 213.758 34.668 213.375 34.7305C212.992 34.7852 212.562 34.8516 212.086 34.9297C211.617 35 211.199 35.082 210.832 35.1758C210.543 34.6602 210.27 34.1797 210.012 33.7344C209.754 33.2891 209.516 32.8516 209.297 32.4219C208.898 32.9453 208.418 33.4336 207.855 33.8867C207.293 34.3398 206.586 34.7031 205.734 34.9766C204.883 35.25 203.812 35.3867 202.523 35.3867ZM204.34 32.0117C205.098 32.0117 205.715 31.8555 206.191 31.543C206.676 31.2227 207.035 30.8203 207.27 30.3359C207.504 29.8438 207.629 29.3359 207.645 28.8125C207.645 28.3281 207.535 27.8711 207.316 27.4414C207.105 27.0039 206.793 26.6523 206.379 26.3867C205.973 26.1133 205.48 25.9766 204.902 25.9766C204.262 25.9766 203.719 26.1445 203.273 26.4805C202.836 26.8086 202.504 27.2148 202.277 27.6992C202.051 28.1836 201.938 28.6562 201.938 29.1172C201.938 30.0391 202.137 30.7539 202.535 31.2617C202.941 31.7617 203.543 32.0117 204.34 32.0117Z" fill="white"/>
<mask id="mask0_2_33" style="mask-type:alpha" maskUnits="userSpaceOnUse" x="224" y="0" width="48" height="48">
<rect x="224" width="48" height="48" fill="#D9D9D9"/>
</mask>
<g mask="url(#mask0_2_33)">
<path d="M248.5 26.05L259.1 19L248.5 11.95V26.05ZM258.15 38.1H264.3C264.3 38.8 264.042 39.3917 263.525 39.875C263.008 40.3583 262.383 40.6333 261.65 40.7L234.65 43.95C233.817 44.05 233.075 43.8583 232.425 43.375C231.775 42.8917 231.4 42.2333 231.3 41.4L228.1 16.5C228 15.6667 228.201 14.9173 228.703 14.252C229.206 13.5863 229.871 13.2023 230.7 13.1L233.9 12.75V15.8L231.05 16.1L234.3 41L258.15 38.1ZM239.9 35.1C239.1 35.1 238.4 34.8 237.8 34.2C237.2 33.6 236.9 32.9 236.9 32.1V7C236.9 6.2 237.2 5.5 237.8 4.9C238.4 4.3 239.1 4 239.9 4H265C265.8 4 266.5 4.3 267.1 4.9C267.7 5.5 268 6.2 268 7V32.1C268 32.9 267.7 33.6 267.1 34.2C266.5 34.8 265.8 35.1 265 35.1H239.9ZM239.9 32.1H265V7H239.9V32.1Z" fill="#FF0033"/>
</g>
</svg>
